<svg xmlns="http://www.w3.org/2000/svg" version="1.1" xmlns:xlink="http://www.w3.org/1999/xlink"
    xmlns:svgjs="http://svgjs.dev/svgjs" width="1440" height="560" preserveAspectRatio="none"
    viewBox="0 0 1440 560">
    <g mask="url(&quot;#SvgjsMask1030&quot;)" fill="none">
        <rect width="1440" height="560" x="0" y="0" fill="rgba(24, 24, 24, 1)"></rect>
        <path
            d="M -888.551154688414,114 C -792.55,169.6 -600.55,382.2 -408.5511546884141,392 C -216.55,401.8 -120.55,162.4 71.4488453115859,163 C 263.45,163.6 359.45,412.2 551.448845311586,395 C 743.45,377.8 853.74,97.4 1031.448845311586,77 C 1209.16,56.6 1358.29,249.8 1440,293"
            stroke="rgba(188, 189, 189, 0.58)" stroke-width="2"></path>
        <path
            d="M -820.7562987709559,223 C -724.76,276.8 -532.76,484.4 -340.75629877095594,492 C -148.76,499.6 -52.76,280.8 139.24370122904406,261 C 331.24,241.2 427.24,411 619.2437012290441,393 C 811.24,375 935.09,155.6 1099.243701229044,171 C 1263.39,186.4 1371.85,410.2 1440,470"
            stroke="rgba(188, 189, 189, 0.58)" stroke-width="2"></path>
        <path
            d="M -464.40757220178904,465 C -368.41,423 -176.41,269.8 15.592427798210977,255 C 207.59,240.2 303.59,399.8 495.59242779821096,391 C 687.59,382.2 783.59,214.8 975.592427798211,211 C 1167.59,207.2 1362.71,394.2 1455.592427798211,372 C 1548.47,349.8 1443.12,154.4 1440,100"
            stroke="rgba(188, 189, 189, 0.58)" stroke-width="2"></path>
        <path
            d="M -53.719205087096725,140 C 42.28,177.8 234.28,332.4 426.2807949129033,329 C 618.28,325.6 714.28,128.8 906.2807949129033,123 C 1098.28,117.2 1194.28,277.8 1386.2807949129033,300 C 1578.28,322.2 1855.54,213 1866.2807949129033,234 C 1877.02,255 1525.26,370.8 1440,405"
            stroke="rgba(188, 189, 189, 0.58)" stroke-width="2"></path>
        <path
            d="M -734.023403089196,399 C -638.02,356.8 -446.02,199.8 -254.02340308919602,188 C -62.02,176.2 33.98,348 225.97659691080398,340 C 417.98,332 513.98,146 705.976596910804,148 C 897.98,150 1039.17,323.8 1185.976596910804,350 C 1332.78,376.2 1389.2,293.2 1440,279"
            stroke="rgba(188, 189, 189, 0.58)" stroke-width="2"></path>
        <path
            d="M -447.94376217453856,272 C -351.94,313.2 -159.94,515.6 32.056237825461444,478 C 224.06,440.4 320.06,93.2 512.0562378254615,84 C 704.06,74.8 800.06,406.4 992.0562378254615,432 C 1184.06,457.6 1382.47,221.2 1472.0562378254615,212 C 1561.64,202.8 1446.41,351.2 1440,386"
            stroke="rgba(188, 189, 189, 0.58)" stroke-width="2"></path>
    </g>
    <defs>
        <mask id="SvgjsMask1030">
            <rect width="1440" height="560" fill="#ffffff"></rect>
        </mask>
    </defs>
</svg>